<svg width="13" height="13" viewBox="0 0 13 13" fill="none" xmlns="http://www.w3.org/2000/svg">
<g filter="url(#filter0_d_1518_5405)">
<path d="M7.45487 4.13228V3.83901C7.45487 3.79999 7.44824 3.76215 7.43537 3.72668C7.4225 3.6912 7.40365 3.65808 7.37987 3.63089C7.35607 3.60369 7.32784 3.5824 7.29679 3.56821C7.26571 3.55283 7.23242 3.54575 7.19878 3.54575H6.1744C5.83483 3.54575 5.50916 3.39083 5.26904 3.11648C5.02891 2.84095 4.89401 2.46845 4.89401 2.07939C4.89401 1.88782 4.92712 1.69625 4.99148 1.51886C5.05582 1.34148 5.15013 1.17947 5.26902 1.04348C5.38793 0.907488 5.52908 0.798701 5.68443 0.725383C5.83976 0.652065 6.00626 0.614216 6.1744 0.614216H7.19871C7.23234 0.614216 7.26565 0.605945 7.29673 0.591755C7.32781 0.577564 7.35606 0.555091 7.37983 0.527893C7.40362 0.500694 7.42249 0.468774 7.43537 0.433298C7.44824 0.397822 7.45487 0.358789 7.45487 0.320948V0.0276794H6.17446C5.93906 0.0276794 5.70597 0.0808875 5.48849 0.183769C5.27101 0.28665 5.07341 0.438017 4.90696 0.628406C4.7405 0.818796 4.60847 1.04584 4.51838 1.29418C4.4283 1.5437 4.38194 1.80977 4.38194 2.07939C4.38194 2.62454 4.5708 3.14605 4.90696 3.53037C5.24312 3.91588 5.69905 4.13228 6.17446 4.13228H7.45487Z" fill="url(#paint0_linear_1518_5405)"/>
<path d="M5.40617 2.07939C5.40617 2.31353 5.48711 2.53703 5.63117 2.70141C5.77524 2.86696 5.97063 2.95921 6.17437 2.95921H7.45486C7.59071 2.95921 7.72096 3.0207 7.81701 3.13067C7.91299 3.24065 7.96705 3.38965 7.96705 3.54575V4.13228H8.47918V3.54575C8.47918 3.23474 8.37128 2.93673 8.1792 2.71678C7.98701 2.49683 7.72652 2.37266 7.45486 2.37266H6.1744C6.10649 2.37266 6.04136 2.34192 5.99333 2.28752C5.94531 2.23194 5.91833 2.15744 5.91833 2.07939C5.91833 2.00252 5.94531 1.92684 5.99333 1.87244C6.04136 1.81805 6.10649 1.78612 6.1744 1.78612H7.45486C7.72652 1.78612 7.98701 1.66313 8.1792 1.44318C8.37128 1.22323 8.47918 0.925225 8.47918 0.614216V0.0276794H7.96694V0.614216C7.96694 0.76913 7.91299 0.91813 7.81701 1.02811C7.72093 1.13808 7.59068 1.20077 7.45486 1.20077H6.1744C6.07351 1.20077 5.97362 1.22323 5.88041 1.26698C5.78719 1.31192 5.70251 1.37577 5.63117 1.45737C5.55983 1.53897 5.50325 1.63594 5.46464 1.74355C5.42603 1.84998 5.40616 1.96468 5.40617 2.07939Z" fill="url(#paint1_linear_1518_5405)"/>
</g>
<defs>
<filter id="filter0_d_1518_5405" x="0.381943" y="0.0276794" width="12.0972" height="12.1046" filterUnits="userSpaceOnUse" color-interpolation-filters="sRGB">
<feFlood flood-opacity="0" result="BackgroundImageFix"/>
<feColorMatrix in="SourceAlpha" type="matrix" values="0 0 0 0 0 0 0 0 0 0 0 0 0 0 0 0 0 0 127 0" result="hardAlpha"/>
<feOffset dy="4"/>
<feGaussianBlur stdDeviation="2"/>
<feComposite in2="hardAlpha" operator="out"/>
<feColorMatrix type="matrix" values="0 0 0 0 0 0 0 0 0 0 0 0 0 0 0 0 0 0 0.25 0"/>
<feBlend mode="normal" in2="BackgroundImageFix" result="effect1_dropShadow_1518_5405"/>
<feBlend mode="normal" in="SourceGraphic" in2="effect1_dropShadow_1518_5405" result="shape"/>
</filter>
<linearGradient id="paint0_linear_1518_5405" x1="4.84595" y1="2.07939" x2="8.78848" y2="2.07939" gradientUnits="userSpaceOnUse">
<stop stop-color="#817696"/>
<stop offset="1" stop-color="#817698"/>
</linearGradient>
<linearGradient id="paint1_linear_1518_5405" x1="4.84381" y1="2.07939" x2="8.78955" y2="2.07939" gradientUnits="userSpaceOnUse">
<stop stop-color="#8575D2"/>
<stop offset="1" stop-color="#9083D5"/>
</linearGradient>
</defs>
</svg>
